<svg width="60" height="60" viewBox="0 0 60 60" fill="none" xmlns="http://www.w3.org/2000/svg">
<path d="M42.595 0H17.405C14.977 0 13 1.977 13 4.405V55.594C13 58.023 14.977 60 17.405 60H42.594C45.023 60 47 58.023 47 55.595V4.405C47 1.977 45.023 0 42.595 0ZM15 8H45V46H15V8ZM17.405 2H42.594C43.921 2 45 3.079 45 4.405V6H15V4.405C15 3.079 16.079 2 17.405 2ZM42.595 58H17.405C16.079 58 15 56.921 15 55.595V48H45V55.595C45 56.921 43.921 58 42.595 58Z" fill="#0A3850"/>
<path d="M30 49C27.794 49 26 50.794 26 53C26 55.206 27.794 57 30 57C32.206 57 34 55.206 34 53C34 50.794 32.206 49 30 49ZM30 55C28.897 55 28 54.103 28 53C28 51.897 28.897 51 30 51C31.103 51 32 51.897 32 53C32 54.103 31.103 55 30 55Z" fill="#0A3850"/>
<path d="M26 5H30C30.553 5 31 4.553 31 4C31 3.447 30.553 3 30 3H26C25.447 3 25 3.447 25 4C25 4.553 25.447 5 26 5Z" fill="#0A3850"/>
<path d="M33 5H34C34.553 5 35 4.553 35 4C35 3.447 34.553 3 34 3H33C32.447 3 32 3.447 32 4C32 4.553 32.447 5 33 5Z" fill="#0A3850"/>
<path d="M56.612 4.56901C56.221 4.17801 55.589 4.17801 55.198 4.56901C54.807 4.96001 54.807 5.59201 55.198 5.98301C58.934 9.71901 58.934 15.798 55.198 19.535C54.807 19.926 54.807 20.558 55.198 20.949C55.393 21.144 55.649 21.242 55.905 21.242C56.161 21.242 56.417 21.144 56.612 20.949C61.128 16.434 61.128 9.08501 56.612 4.56901Z" fill="#0A3850"/>
<path d="M52.401 6.84501C52.01 6.45401 51.378 6.45401 50.987 6.84501C50.596 7.23601 50.596 7.86801 50.987 8.25901C52.224 9.49601 52.905 11.144 52.905 12.898C52.905 14.652 52.224 16.299 50.987 17.536C50.596 17.927 50.596 18.559 50.987 18.95C51.182 19.145 51.438 19.243 51.694 19.243C51.95 19.243 52.206 19.145 52.401 18.95C54.016 17.336 54.905 15.186 54.905 12.898C54.905 10.61 54.017 8.45901 52.401 6.84501Z" fill="#0A3850"/>
<path d="M4.80201 5.98301C5.19301 5.59201 5.19301 4.96001 4.80201 4.56901C4.41101 4.17801 3.77901 4.17801 3.38801 4.56901C-1.12799 9.08501 -1.12799 16.433 3.38801 20.949C3.58301 21.144 3.83901 21.242 4.09501 21.242C4.35101 21.242 4.60701 21.144 4.80201 20.949C5.19301 20.558 5.19301 19.926 4.80201 19.535C1.06501 15.799 1.06501 9.72001 4.80201 5.98301Z" fill="#0A3850"/>
<path d="M9.013 6.56901C8.622 6.17801 7.99 6.17801 7.599 6.56901C5.984 8.18301 5.095 10.333 5.095 12.621C5.095 14.909 5.984 17.059 7.599 18.674C7.794 18.869 8.05 18.967 8.306 18.967C8.562 18.967 8.818 18.869 9.013 18.674C9.404 18.283 9.404 17.651 9.013 17.26C7.776 16.023 7.095 14.375 7.095 12.621C7.095 10.867 7.775 9.22001 9.013 7.98301C9.403 7.59301 9.403 6.96001 9.013 6.56901Z" fill="#0A3850"/>
</svg>
