<svg width="60" height="60" viewBox="0 0 60 60" fill="none" xmlns="http://www.w3.org/2000/svg">
<g clip-path="url(#clip0)">
<path d="M59.4088 0.153989C59.0433 -0.0546044 58.5938 -0.0510888 58.2316 0.16313L36.7566 12.862C36.1995 13.1915 36.0149 13.91 36.3443 14.4672C36.6736 15.0241 37.3922 15.2087 37.9494 14.8794L53.3575 5.76821L24.6575 35.5471L10.3832 31.18L29.0119 20.1643C29.569 19.8348 29.7536 19.1162 29.4241 18.5591C29.0948 18.0021 28.3761 17.8173 27.819 18.1468L6.90352 30.5147C6.50391 30.7511 6.28137 31.2009 6.33633 31.6621C6.39129 32.1232 6.7132 32.5083 7.15711 32.6441L24.2043 37.8594L31.725 51.5484C31.7329 51.5626 31.7409 51.5746 31.7493 51.5852C31.8748 51.7945 32.0629 51.9655 32.2975 52.0642C32.4443 52.1259 32.5986 52.1561 32.7519 52.1561C33.0523 52.1561 33.3479 52.0405 33.5712 51.8222L42.2189 43.3706L58.4852 48.3471C58.5977 48.3815 58.7132 48.3984 58.828 48.3984C59.076 48.3984 59.3209 48.3197 59.525 48.1686C59.8237 47.9476 60 47.5981 60 47.2266V1.17188C60 0.75106 59.7743 0.362466 59.4088 0.153989ZM31.7889 38.5816C31.6532 38.7777 31.5804 39.0104 31.5804 39.2489V46.4174L26.4449 37.0699L49.17 13.4906L31.7889 38.5816ZM33.9241 48.2003V40.8331L39.6652 42.5895L33.9241 48.2003ZM57.6562 45.6425L34.629 38.5977L57.6562 5.35594V45.6425Z" fill="#0A3850"/>
<path d="M19.2683 40.7317C18.8106 40.2741 18.0688 40.2741 17.6109 40.7317L6.67125 51.6714C6.21363 52.129 6.21363 52.871 6.67125 53.3287C6.90023 53.5575 7.20011 53.6719 7.5 53.6719C7.79988 53.6719 8.09976 53.5575 8.32863 53.3286L19.2683 42.3889C19.7259 41.9314 19.7259 41.1894 19.2683 40.7317Z" fill="#0A3850"/>
<path d="M4.69582 55.3041C4.23809 54.8467 3.49629 54.8467 3.03856 55.3042L0.343243 57.9995C-0.114374 58.4571 -0.114374 59.1992 0.343243 59.6569C0.572111 59.8857 0.871993 60 1.17188 60C1.47176 60 1.77164 59.8855 2.00051 59.6568L4.69582 56.9615C5.15344 56.5039 5.15344 55.7618 4.69582 55.3041Z" fill="#0A3850"/>
<path d="M16.7167 57.9305C16.4988 57.7125 16.1965 57.5871 15.8883 57.5871C15.5788 57.5871 15.2777 57.7125 15.0598 57.9305C14.8418 58.1484 14.7164 58.4496 14.7164 58.759C14.7164 59.0672 14.8417 59.3695 15.0598 59.5875C15.2777 59.8055 15.5801 59.9308 15.8883 59.9308C16.1965 59.9308 16.4988 59.8055 16.7167 59.5875C16.9346 59.3695 17.0602 59.0672 17.0602 58.759C17.0602 58.4496 16.9348 58.1484 16.7167 57.9305Z" fill="#0A3850"/>
<path d="M25.4357 49.2112C24.9783 48.7535 24.2365 48.7535 23.7784 49.2112L17.984 55.0055C17.5263 55.4631 17.5263 56.2052 17.984 56.6628C18.2128 56.8916 18.5127 57.006 18.8126 57.006C19.1125 57.006 19.4124 56.8915 19.6412 56.6628L25.4357 50.8684C25.8933 50.4108 25.8933 49.6688 25.4357 49.2112Z" fill="#0A3850"/>
<path d="M45.4341 48.7663C44.9763 48.3088 44.2345 48.3088 43.7768 48.7663L37.9666 54.5764C37.509 55.034 37.509 55.7761 37.9666 56.2338C38.1955 56.4626 38.4954 56.5771 38.7953 56.5771C39.0951 56.5771 39.395 56.4626 39.6239 56.2338L45.4341 50.4237C45.8917 49.966 45.8917 49.224 45.4341 48.7663Z" fill="#0A3850"/>
<path d="M33.2226 15.9738C33.0047 15.7559 32.7023 15.6305 32.3941 15.6305C32.0859 15.6305 31.7836 15.7559 31.5656 15.9738C31.3478 16.1918 31.2223 16.4941 31.2223 16.8035C31.2223 17.1117 31.3476 17.4129 31.5656 17.6309C31.7836 17.85 32.0859 17.9742 32.3941 17.9742C32.7023 17.9742 33.0047 17.85 33.2226 17.6309C33.4405 17.4129 33.566 17.1117 33.566 16.8035C33.566 16.4941 33.4406 16.1918 33.2226 15.9738Z" fill="#0A3850"/>
</g>
<defs>
<clipPath id="clip0">
<rect width="60" height="60" fill="white"/>
</clipPath>
</defs>
</svg>
