<svg width="301" height="50" viewBox="0 0 301 50" fill="none" xmlns="http://www.w3.org/2000/svg">
<path fill-rule="evenodd" clip-rule="evenodd" d="M131.044 6.06554H132.527V43.839H131.044V6.06554Z" fill="white"/>
<path fill-rule="evenodd" clip-rule="evenodd" d="M141.163 11.6486H142.646V49.4221H141.163V11.6486Z" fill="white"/>
<path fill-rule="evenodd" clip-rule="evenodd" d="M136.103 0.395259H137.586V38.1688H136.103V0.395259Z" fill="white"/>
<path d="M0.681732 30.8076C1.70407 32.1684 3.38955 32.8733 5.06099 32.8733C7.72002 32.8733 9.35309 31.331 9.35309 28.6301C9.35309 26.7284 8.36194 25.87 7.16869 25.2767C4.95973 24.1707 1.80541 24.1707 1.80541 21.1312C1.80541 19.282 2.78936 17.6384 4.94926 17.6384C6.24043 17.6384 7.32215 18.2107 8.12815 19.1983L8.58534 18.8632C7.73028 17.6908 6.38349 17.0172 4.93872 17.0172C2.48236 17.0172 1.07953 18.7202 1.07953 21.1139C1.07953 26.4423 8.62721 23.9264 8.62721 28.693C8.62721 30.8076 7.21042 32.2209 5.06099 32.2209C3.52215 32.2209 2.18562 31.6485 1.21206 30.4307L0.681732 30.8076ZM18.8955 32.5837V17.2127H18.2009V32.5837H18.8955ZM36.5855 31.9346H29.3206V17.2301H28.5947V32.5942H36.5438L36.5855 31.9346ZM52.9533 17.2163H52.1961L47.6389 31.8056H47.5867L43.0015 17.2163H42.2862L47.0981 32.5942H48.1414L52.9533 17.2163ZM69.5166 31.9241H61.8259V25.0779H68.3686L68.4106 24.4324H61.8259V17.8408H69.3806L69.4225 17.2163H61.121V32.5942H69.4747L69.5166 31.9241ZM79.136 32.5837V17.2127H78.4414V32.5837H79.136ZM92.9495 17.8687C95.6153 17.8687 96.6971 19.2052 96.6971 21.6862C96.6971 24.0172 94.8685 25.1442 93.061 25.1442H89.5298V17.8687H92.9495ZM98.0963 32.5942L94.0207 25.7165C96.3901 25.1127 97.4124 23.6298 97.4124 21.5849C97.4124 18.3886 95.5525 17.237 92.9702 17.237H88.8493V32.5942H89.5298V25.8071H93.2984L97.2694 32.5942H98.0963ZM114.265 27.5658H107.635L110.905 17.8338H110.954L114.265 27.5658ZM116.736 32.5837L111.467 17.2092H110.413L105.161 32.5837H105.94L107.419 28.2079H114.489L115.982 32.5837H116.736Z" fill="white"/>
<path d="M162.481 24.9209C164.753 24.9209 166.04 26.1456 166.04 28.3441C166.04 31.1215 164.704 31.9277 162.321 31.9277H157.864V24.9209H162.481ZM161.553 17.8408C163.905 17.8408 164.927 19.1564 164.927 21.1523C164.927 22.9948 163.936 24.2544 161.982 24.2544H157.864V17.8408H161.553ZM162.167 32.5942C165.192 32.5942 166.71 31.5403 166.71 28.3335C166.71 26.4039 165.824 24.8372 163.486 24.5196C165.266 23.867 165.642 22.6492 165.642 21.1627C165.642 18.319 163.852 17.2163 161.438 17.2163H157.191V32.5942H162.167ZM183.211 27.5658H176.581L179.85 17.8339H179.899L183.211 27.5658ZM185.681 32.5837L180.412 17.2092H179.358L174.107 32.5837H174.885L176.364 28.2079H183.434L184.927 32.5837H185.681ZM197.893 17.8687C200.559 17.8687 201.641 19.2052 201.641 21.6862C201.641 24.0172 199.812 25.1442 198.005 25.1442H194.473V17.8687H197.893ZM203.04 32.5942L198.964 25.7165C201.334 25.1127 202.356 23.6298 202.356 21.5849C202.356 18.3886 200.496 17.237 197.914 17.237H193.793V32.5942H194.473V25.8071H198.242L202.213 32.5942H203.04ZM215.402 17.8687C218.068 17.8687 219.15 19.2052 219.15 21.6862C219.15 24.0172 217.321 25.1442 215.514 25.1442H211.982V17.8687H215.402ZM220.549 32.5942L216.473 25.7165C218.843 25.1127 219.865 23.6298 219.865 21.5849C219.865 18.3886 218.005 17.237 215.423 17.237H211.302V32.5942H211.982V25.8071H215.751L219.722 32.5942H220.549ZM237.196 31.9241H229.505V25.078H236.048L236.09 24.4324H229.505V17.8408H237.06L237.102 17.2163H228.8V32.5942H237.154L237.196 31.9241ZM246.815 32.5837V17.2127H246.121V32.5837H246.815ZM260.629 17.8687C263.295 17.8687 264.376 19.2052 264.376 21.6862C264.376 24.0172 262.548 25.1442 260.74 25.1442H257.209V17.8687H260.629ZM265.776 32.5942L261.7 25.7165C264.069 25.1127 265.092 23.6298 265.092 21.5849C265.092 18.3886 263.232 17.237 260.649 17.237H256.528V32.5942H257.209V25.8071H260.978L264.949 32.5942H265.776ZM278.525 17.6804C282.307 17.6804 283.26 22.3841 283.26 24.8407C283.26 26.9274 282.737 32.2242 278.535 32.2242C274.61 32.2242 273.779 27.4578 273.779 24.8407C273.779 22.5481 274.683 17.6804 278.525 17.6804V17.6804ZM278.535 32.8873C282.716 32.8873 283.975 28.4313 283.975 24.872C283.975 20.5625 282.021 17.0383 278.525 17.0383C274.948 17.0383 273.074 20.7894 273.074 24.872C273.074 28.7803 274.498 32.8873 278.535 32.8873ZM292.01 30.8076C293.033 32.1684 294.718 32.8733 296.39 32.8733C299.049 32.8733 300.682 31.331 300.682 28.6301C300.682 26.7284 299.691 25.87 298.497 25.2767C296.288 24.1707 293.134 24.1707 293.134 21.1312C293.134 19.282 294.118 17.6384 296.278 17.6384C297.569 17.6384 298.651 18.2107 299.457 19.1983L299.914 18.8632C299.059 17.6909 297.712 17.0173 296.267 17.0173C293.811 17.0173 292.408 18.7202 292.408 21.1139C292.408 26.4423 299.956 23.9264 299.956 28.693C299.956 30.8076 298.539 32.2209 296.39 32.2209C294.851 32.2209 293.514 31.6485 292.541 30.4307L292.01 30.8076Z" fill="white"/>
</svg>
