<svg width="260" height="60" viewBox="0 0 260 60" fill="none" xmlns="http://www.w3.org/2000/svg">
<g clip-path="url(#clip0)">
<path fill-rule="evenodd" clip-rule="evenodd" d="M111.194 5.19904H112.475V37.5763H111.194V5.19904Z" fill="white"/>
<path fill-rule="evenodd" clip-rule="evenodd" d="M123.935 9.98451H125.216V42.3618H123.935V9.98451Z" fill="white"/>
<path fill-rule="evenodd" clip-rule="evenodd" d="M117.564 0.338791H118.845V32.7161H117.564V0.338791Z" fill="white"/>
<g filter="url(#filter0_d)">
<path d="M0.588867 26.4065C1.47195 27.5729 2.92785 28.1771 4.37161 28.1771C6.66845 28.1771 8.07908 26.8551 8.07908 24.5401C8.07908 22.9101 7.22293 22.1743 6.19222 21.6657C4.28415 20.7177 1.55949 20.7177 1.55949 18.1125C1.55949 16.5274 2.40941 15.1186 4.2751 15.1186C5.3904 15.1186 6.32478 15.6092 7.02099 16.4557L7.4159 16.1685C6.67731 15.1635 5.51397 14.5862 4.266 14.5862C2.14423 14.5862 0.93248 16.0459 0.93248 18.0976C0.93248 22.6648 7.45207 20.5083 7.45207 24.594C7.45207 26.4065 6.22827 27.6179 4.37161 27.6179C3.04238 27.6179 1.88791 27.1273 1.04696 26.0835L0.588867 26.4065ZM16.3217 27.9289V14.7537H15.7217V27.9289H16.3217ZM31.6021 27.3725H25.3268V14.7687H24.6997V27.9379H31.5661L31.6021 27.3725ZM45.7404 14.7568H45.0863L41.1499 27.2619H41.1048L37.1441 14.7568H36.5263L40.6827 27.9379H41.5839L45.7404 14.7568ZM60.0476 27.3635H53.4044V21.4953H59.0559L59.0922 20.9421H53.4044V15.2921H59.9301L59.9663 14.7568H52.7955V27.9379H60.0114L60.0476 27.3635ZM68.3567 27.9289V14.7537H67.7567V27.9289H68.3567ZM80.2886 15.316C82.5913 15.316 83.5257 16.4616 83.5257 18.5882C83.5257 20.5862 81.9462 21.5522 80.3849 21.5522H77.3347V15.316H80.2886ZM84.7343 27.9379L81.2139 22.0427C83.2605 21.5252 84.1436 20.2541 84.1436 18.5013C84.1436 15.7617 82.537 14.7746 80.3065 14.7746H76.7469V27.9379H77.3347V22.1204H80.59L84.0201 27.9379H84.7343ZM98.7007 23.6278H92.9737L95.7983 15.2861H95.8407L98.7007 23.6278ZM100.835 27.9289L96.2838 14.7507H95.3734L90.8367 27.9289H91.5096L92.7872 24.1782H98.8941L100.184 27.9289H100.835Z" fill="white"/>
<path d="M0.531235 26.3248L0.446702 26.3844L0.50914 26.4669C1.41422 27.6623 2.90205 28.2771 4.37161 28.2771C5.53892 28.2771 6.49329 27.9409 7.15624 27.2986C7.81966 26.6558 8.17908 25.7182 8.17908 24.5401C8.17908 23.7061 7.95953 23.0927 7.60179 22.6219C7.24557 22.153 6.75831 21.8335 6.23658 21.5761C5.75231 21.3355 5.21767 21.1558 4.69492 20.9821C4.6795 20.9769 4.6641 20.9718 4.64871 20.9667C4.13937 20.7976 3.64337 20.6328 3.20381 20.4205C2.75174 20.2022 2.36712 19.937 2.09509 19.5735C1.82436 19.2118 1.65949 18.745 1.65949 18.1125C1.65949 17.3364 1.86768 16.6122 2.29537 16.0841C2.7207 15.5589 3.37016 15.2186 4.2751 15.2186C5.35766 15.2186 6.26466 15.6935 6.94375 16.5192L7.00361 16.592L7.07981 16.5366L7.47472 16.2493L7.556 16.1902L7.49648 16.1092C6.73867 15.0782 5.54515 14.4862 4.266 14.4862C3.18093 14.4862 2.31935 14.8602 1.72977 15.505C1.14126 16.1487 0.83248 17.0525 0.83248 18.0976C0.83248 19.2681 1.25239 20.0184 1.88755 20.5421C2.51539 21.0597 3.34844 21.3509 4.1607 21.6213C4.20439 21.6358 4.24801 21.6503 4.29154 21.6647C5.06568 21.9217 5.81051 22.1689 6.37463 22.5785C6.9612 23.0043 7.35207 23.6061 7.35207 24.594C7.35207 25.4771 7.0544 26.2062 6.53795 26.7144C6.02137 27.2227 5.27782 27.5179 4.37161 27.5179C3.06936 27.5179 1.94483 27.0385 1.12483 26.0207L1.06598 25.9477L0.989325 26.0017L0.531235 26.3248ZM16.3217 28.0289H16.4217V27.9289V14.7537V14.6537H16.3217H15.7217H15.6217V14.7537V27.9289V28.0289H15.7217H16.3217ZM31.7019 27.3789L31.7087 27.2725H31.6021H25.4268V14.7687V14.6687H25.3268H24.6997H24.5997V14.7687V27.9379V28.0379H24.6997H31.5661H31.6599L31.6659 27.9442L31.7019 27.3789ZM45.8358 14.7869L45.8768 14.6568H45.7404H45.0863H45.013L44.9909 14.7268L41.1271 27.0012L37.2395 14.7266L37.2174 14.6568H37.1441H36.5263H36.3899L36.4309 14.7869L40.5874 27.968L40.6094 28.0379H40.6827H41.5839H41.6572L41.6793 27.968L45.8358 14.7869ZM60.1474 27.3698L60.1541 27.2635H60.0476H53.5044V21.5953H59.0559H59.1496L59.1557 21.5019L59.192 20.9486L59.199 20.8421H59.0922H53.5044V15.3921H59.9301H60.0235L60.0299 15.2989L60.066 14.7636L60.0733 14.6568H59.9663H52.7955H52.6955V14.7568V27.9379V28.0379H52.7955H60.0114H60.1053L60.1112 27.9442L60.1474 27.3698ZM68.3567 28.0289H68.4567V27.9289V14.7537V14.6537H68.3567H67.7567H67.6567V14.7537V27.9289V28.0289H67.7567H68.3567ZM84.7343 28.0379H84.9105L84.8202 27.8866L81.3679 22.1055C82.3402 21.8383 83.0518 21.3941 83.5246 20.7973C84.0183 20.1742 84.2436 19.3948 84.2436 18.5013C84.2436 17.1116 83.8354 16.1484 83.127 15.535C82.4212 14.9239 81.4344 14.6746 80.3065 14.6746H76.7469H76.6469V14.7746V27.9379V28.0379H76.7469H77.3347H77.4347V27.9379V22.2204H80.5328L83.9339 27.9887L83.9629 28.0379H84.0201H84.7343ZM100.835 28.0289H100.975L100.93 27.8962L96.3783 14.7181L96.355 14.6507H96.2838H95.3734H95.302L95.2788 14.7182L90.7422 27.8963L90.6966 28.0289H90.8367H91.5096H91.5812L91.6043 27.9611L92.8587 24.2782H98.8228L100.089 27.9614L100.112 28.0289H100.184H100.835ZM80.2886 15.416C81.4247 15.416 82.2024 15.6985 82.698 16.2233C83.1945 16.7492 83.4257 17.5372 83.4257 18.5882C83.4257 19.558 83.0436 20.2707 82.4768 20.7426C81.9076 21.2165 81.1462 21.4522 80.3849 21.4522H77.4347V15.416H80.2886ZM95.82 15.5341L98.5607 23.5278H93.1132L95.82 15.5341Z" stroke="white" stroke-width="0.2"/>
</g>
<g filter="url(#filter1_d)">
<mask id="path-6-outside-1" maskUnits="userSpaceOnUse" x="134.78" y="13.5862" width="126" height="15" fill="black">
<rect fill="white" x="134.78" y="13.5862" width="126" height="15"/>
<path d="M140.349 21.3607C142.312 21.3607 143.423 22.4105 143.423 24.2949C143.423 26.6756 142.269 27.3666 140.211 27.3666H136.361V21.3607H140.349ZM139.547 15.2921C141.579 15.2921 142.462 16.4198 142.462 18.1305C142.462 19.7098 141.606 20.7895 139.918 20.7895H136.361V15.2921H139.547ZM140.078 27.9378C142.691 27.9378 144.002 27.0345 144.002 24.2859C144.002 22.6319 143.237 21.289 141.217 21.0168C142.755 20.4574 143.079 19.4136 143.079 18.1395C143.079 15.702 141.533 14.7568 139.448 14.7568H135.78V27.9378H140.078ZM158.255 23.6278H152.528L155.352 15.2861H155.394L158.255 23.6278ZM160.389 27.9289L155.838 14.7507H154.927L150.391 27.9289H151.063L152.341 24.1782H158.448L159.738 27.9289H160.389ZM170.937 15.316C173.24 15.316 174.175 16.4616 174.175 18.5882C174.175 20.5862 172.595 21.5522 171.034 21.5522H167.983V15.316H170.937ZM175.383 27.9378L171.863 22.0427C173.91 21.5252 174.793 20.2541 174.793 18.5013C174.793 15.7617 173.186 14.7746 170.956 14.7746H167.396V27.9378H167.983V22.1204H171.239L174.669 27.9378H175.383ZM186.062 15.316C188.364 15.316 189.299 16.4616 189.299 18.5882C189.299 20.5862 187.719 21.5522 186.158 21.5522H183.107V15.316H186.062ZM190.507 27.9378L186.987 22.0427C189.034 21.5252 189.917 20.2541 189.917 18.5013C189.917 15.7617 188.31 14.7746 186.08 14.7746H182.52V27.9378H183.107V22.1204H186.363L189.793 27.9378H190.507ZM204.887 27.3635H198.244V21.4953H203.895L203.932 20.9421H198.244V15.2921H204.769L204.806 14.7568H197.635V27.9378H204.851L204.887 27.3635ZM213.196 27.9289V14.7537H212.596V27.9289H213.196ZM225.128 15.316C227.431 15.316 228.365 16.4616 228.365 18.5882C228.365 20.5862 226.786 21.5522 225.224 21.5522H222.174V15.316H225.128ZM229.574 27.9378L226.053 22.0427C228.099 21.5252 228.983 20.2541 228.983 18.5013C228.983 15.7617 227.376 14.7746 225.145 14.7746H221.586V27.9378H222.174V22.1204H225.43L228.86 27.9378H229.574ZM240.586 15.1546C243.853 15.1546 244.676 19.1864 244.676 21.292C244.676 23.0806 244.225 27.6207 240.595 27.6207C237.205 27.6207 236.487 23.5352 236.487 21.292C236.487 19.3269 237.268 15.1546 240.586 15.1546ZM240.595 28.1891C244.207 28.1891 245.294 24.3697 245.294 21.3189C245.294 17.625 243.606 14.6043 240.586 14.6043C237.497 14.6043 235.878 17.8195 235.878 21.3189C235.878 24.6687 237.108 28.1891 240.595 28.1891ZM252.235 26.4065C253.118 27.5729 254.574 28.1771 256.018 28.1771C258.315 28.1771 259.725 26.8551 259.725 24.5401C259.725 22.9101 258.869 22.1743 257.838 21.6657C255.93 20.7177 253.205 20.7177 253.205 18.1125C253.205 16.5274 254.055 15.1186 255.921 15.1186C257.036 15.1186 257.971 15.6092 258.667 16.4557L259.062 16.1685C258.323 15.1635 257.16 14.5862 255.912 14.5862C253.79 14.5862 252.578 16.0459 252.578 18.0976C252.578 22.6648 259.098 20.5083 259.098 24.594C259.098 26.4065 257.874 27.6179 256.018 27.6179C254.689 27.6179 253.534 27.1273 252.693 26.0835L252.235 26.4065Z"/>
</mask>
<path d="M140.349 21.3607C142.312 21.3607 143.423 22.4105 143.423 24.2949C143.423 26.6756 142.269 27.3666 140.211 27.3666H136.361V21.3607H140.349ZM139.547 15.2921C141.579 15.2921 142.462 16.4198 142.462 18.1305C142.462 19.7098 141.606 20.7895 139.918 20.7895H136.361V15.2921H139.547ZM140.078 27.9378C142.691 27.9378 144.002 27.0345 144.002 24.2859C144.002 22.6319 143.237 21.289 141.217 21.0168C142.755 20.4574 143.079 19.4136 143.079 18.1395C143.079 15.702 141.533 14.7568 139.448 14.7568H135.78V27.9378H140.078ZM158.255 23.6278H152.528L155.352 15.2861H155.394L158.255 23.6278ZM160.389 27.9289L155.838 14.7507H154.927L150.391 27.9289H151.063L152.341 24.1782H158.448L159.738 27.9289H160.389ZM170.937 15.316C173.24 15.316 174.175 16.4616 174.175 18.5882C174.175 20.5862 172.595 21.5522 171.034 21.5522H167.983V15.316H170.937ZM175.383 27.9378L171.863 22.0427C173.91 21.5252 174.793 20.2541 174.793 18.5013C174.793 15.7617 173.186 14.7746 170.956 14.7746H167.396V27.9378H167.983V22.1204H171.239L174.669 27.9378H175.383ZM186.062 15.316C188.364 15.316 189.299 16.4616 189.299 18.5882C189.299 20.5862 187.719 21.5522 186.158 21.5522H183.107V15.316H186.062ZM190.507 27.9378L186.987 22.0427C189.034 21.5252 189.917 20.2541 189.917 18.5013C189.917 15.7617 188.31 14.7746 186.08 14.7746H182.52V27.9378H183.107V22.1204H186.363L189.793 27.9378H190.507ZM204.887 27.3635H198.244V21.4953H203.895L203.932 20.9421H198.244V15.2921H204.769L204.806 14.7568H197.635V27.9378H204.851L204.887 27.3635ZM213.196 27.9289V14.7537H212.596V27.9289H213.196ZM225.128 15.316C227.431 15.316 228.365 16.4616 228.365 18.5882C228.365 20.5862 226.786 21.5522 225.224 21.5522H222.174V15.316H225.128ZM229.574 27.9378L226.053 22.0427C228.099 21.5252 228.983 20.2541 228.983 18.5013C228.983 15.7617 227.376 14.7746 225.145 14.7746H221.586V27.9378H222.174V22.1204H225.43L228.86 27.9378H229.574ZM240.586 15.1546C243.853 15.1546 244.676 19.1864 244.676 21.292C244.676 23.0806 244.225 27.6207 240.595 27.6207C237.205 27.6207 236.487 23.5352 236.487 21.292C236.487 19.3269 237.268 15.1546 240.586 15.1546ZM240.595 28.1891C244.207 28.1891 245.294 24.3697 245.294 21.3189C245.294 17.625 243.606 14.6043 240.586 14.6043C237.497 14.6043 235.878 17.8195 235.878 21.3189C235.878 24.6687 237.108 28.1891 240.595 28.1891ZM252.235 26.4065C253.118 27.5729 254.574 28.1771 256.018 28.1771C258.315 28.1771 259.725 26.8551 259.725 24.5401C259.725 22.9101 258.869 22.1743 257.838 21.6657C255.93 20.7177 253.205 20.7177 253.205 18.1125C253.205 16.5274 254.055 15.1186 255.921 15.1186C257.036 15.1186 257.971 15.6092 258.667 16.4557L259.062 16.1685C258.323 15.1635 257.16 14.5862 255.912 14.5862C253.79 14.5862 252.578 16.0459 252.578 18.0976C252.578 22.6648 259.098 20.5083 259.098 24.594C259.098 26.4065 257.874 27.6179 256.018 27.6179C254.689 27.6179 253.534 27.1273 252.693 26.0835L252.235 26.4065Z" fill="white"/>
<path d="M140.349 21.3607C142.312 21.3607 143.423 22.4105 143.423 24.2949C143.423 26.6756 142.269 27.3666 140.211 27.3666H136.361V21.3607H140.349ZM139.547 15.2921C141.579 15.2921 142.462 16.4198 142.462 18.1305C142.462 19.7098 141.606 20.7895 139.918 20.7895H136.361V15.2921H139.547ZM140.078 27.9378C142.691 27.9378 144.002 27.0345 144.002 24.2859C144.002 22.6319 143.237 21.289 141.217 21.0168C142.755 20.4574 143.079 19.4136 143.079 18.1395C143.079 15.702 141.533 14.7568 139.448 14.7568H135.78V27.9378H140.078ZM158.255 23.6278H152.528L155.352 15.2861H155.394L158.255 23.6278ZM160.389 27.9289L155.838 14.7507H154.927L150.391 27.9289H151.063L152.341 24.1782H158.448L159.738 27.9289H160.389ZM170.937 15.316C173.24 15.316 174.175 16.4616 174.175 18.5882C174.175 20.5862 172.595 21.5522 171.034 21.5522H167.983V15.316H170.937ZM175.383 27.9378L171.863 22.0427C173.91 21.5252 174.793 20.2541 174.793 18.5013C174.793 15.7617 173.186 14.7746 170.956 14.7746H167.396V27.9378H167.983V22.1204H171.239L174.669 27.9378H175.383ZM186.062 15.316C188.364 15.316 189.299 16.4616 189.299 18.5882C189.299 20.5862 187.719 21.5522 186.158 21.5522H183.107V15.316H186.062ZM190.507 27.9378L186.987 22.0427C189.034 21.5252 189.917 20.2541 189.917 18.5013C189.917 15.7617 188.31 14.7746 186.08 14.7746H182.52V27.9378H183.107V22.1204H186.363L189.793 27.9378H190.507ZM204.887 27.3635H198.244V21.4953H203.895L203.932 20.9421H198.244V15.2921H204.769L204.806 14.7568H197.635V27.9378H204.851L204.887 27.3635ZM213.196 27.9289V14.7537H212.596V27.9289H213.196ZM225.128 15.316C227.431 15.316 228.365 16.4616 228.365 18.5882C228.365 20.5862 226.786 21.5522 225.224 21.5522H222.174V15.316H225.128ZM229.574 27.9378L226.053 22.0427C228.099 21.5252 228.983 20.2541 228.983 18.5013C228.983 15.7617 227.376 14.7746 225.145 14.7746H221.586V27.9378H222.174V22.1204H225.43L228.86 27.9378H229.574ZM240.586 15.1546C243.853 15.1546 244.676 19.1864 244.676 21.292C244.676 23.0806 244.225 27.6207 240.595 27.6207C237.205 27.6207 236.487 23.5352 236.487 21.292C236.487 19.3269 237.268 15.1546 240.586 15.1546ZM240.595 28.1891C244.207 28.1891 245.294 24.3697 245.294 21.3189C245.294 17.625 243.606 14.6043 240.586 14.6043C237.497 14.6043 235.878 17.8195 235.878 21.3189C235.878 24.6687 237.108 28.1891 240.595 28.1891ZM252.235 26.4065C253.118 27.5729 254.574 28.1771 256.018 28.1771C258.315 28.1771 259.725 26.8551 259.725 24.5401C259.725 22.9101 258.869 22.1743 257.838 21.6657C255.93 20.7177 253.205 20.7177 253.205 18.1125C253.205 16.5274 254.055 15.1186 255.921 15.1186C257.036 15.1186 257.971 15.6092 258.667 16.4557L259.062 16.1685C258.323 15.1635 257.16 14.5862 255.912 14.5862C253.79 14.5862 252.578 16.0459 252.578 18.0976C252.578 22.6648 259.098 20.5083 259.098 24.594C259.098 26.4065 257.874 27.6179 256.018 27.6179C254.689 27.6179 253.534 27.1273 252.693 26.0835L252.235 26.4065Z" stroke="white" stroke-width="0.4" mask="url(#path-6-outside-1)"/>
</g>
<mask id="path-7-outside-2" maskUnits="userSpaceOnUse" x="57.6935" y="51.9127" width="145" height="8" fill="black">
<rect fill="white" x="57.6935" y="51.9127" width="145" height="8"/>
<path d="M62.5588 57.3571H59.7439L61.1321 53.2568H61.1528L62.5588 57.3571ZM63.6077 59.4711L61.3707 52.9936H60.9232L58.6935 59.4711H59.024L59.6522 57.6275H62.6537L63.2878 59.4711H63.6077ZM68.2697 53.2744C70.3423 53.2744 71.1927 54.3535 71.1927 56.3412C71.1927 58.242 70.0549 59.205 68.7392 59.205H67.3423V53.2744H68.2697ZM68.8252 59.4754C70.4327 59.4754 71.4876 58.1523 71.4876 56.3412C71.4876 53.8551 70.2075 53.0068 68.2341 53.0068H67.0473V59.4754H68.8252ZM79.1243 52.9965H78.8029L76.868 59.1433H76.8456L74.899 52.9965H74.5954L76.6384 59.4754H77.0813L79.1243 52.9965ZM84.5018 53.192C86.1078 53.192 86.5118 55.1739 86.5118 56.2087C86.5118 57.0879 86.29 59.3196 84.5062 59.3196C82.8395 59.3196 82.4869 57.3114 82.4869 56.2087C82.4869 55.2429 82.8706 53.192 84.5018 53.192ZM84.506 59.5989C86.281 59.5989 86.8158 57.7216 86.8158 56.222C86.8158 54.4065 85.9861 52.9215 84.5016 52.9215C82.983 52.9215 82.1874 54.5019 82.1874 56.222C82.1874 57.8686 82.7919 59.5989 84.506 59.5989ZM94.9795 59.4726L94.976 56.5087H93.3296V56.7763H94.672L94.6633 57.9817C94.247 58.7095 93.8039 59.3168 92.8796 59.3168C91.3507 59.3168 90.7607 57.8656 90.7607 56.2339C90.7607 54.8827 91.2937 53.1847 92.9271 53.1847C93.5205 53.1847 94.069 53.4287 94.5243 54.0447L94.7324 53.8801C94.2763 53.192 93.5654 52.9215 92.9271 52.9215C91.1209 52.9215 90.4627 54.5783 90.4627 56.2339C90.4627 58.1539 91.1417 59.5976 92.8744 59.5976C93.5076 59.5976 94.1641 59.4033 94.6763 58.442L94.672 59.4726H94.9803H94.9795ZM102.139 57.3571H99.3243L100.713 53.2568H100.733L102.139 57.3571ZM103.188 59.4711L100.952 52.9936H100.504L98.274 59.4711H98.6048L99.2328 57.6275H102.234L102.868 59.4711H103.188ZM107.851 53.2744C109.923 53.2744 110.774 54.3535 110.774 56.3412C110.774 58.242 109.635 59.205 108.32 59.205H106.923V53.2744H107.851ZM108.406 59.4754C110.014 59.4754 111.068 58.1523 111.068 56.3412C111.068 53.8551 109.788 53.0068 107.814 53.0068H106.629V59.4754H108.406ZM116.914 53.192C118.519 53.192 118.925 55.1739 118.925 56.2087C118.925 57.0879 118.703 59.3196 116.918 59.3196C115.252 59.3196 114.899 57.3114 114.899 56.2087C114.899 55.2429 115.283 53.192 116.914 53.192ZM116.918 59.5989C118.693 59.5989 119.228 57.7216 119.228 56.222C119.228 54.4065 118.398 52.9215 116.914 52.9215C115.395 52.9215 114.6 54.5019 114.6 56.222C114.6 57.8686 115.204 59.5989 116.918 59.5989ZM122.639 58.7228C123.073 59.296 123.789 59.5931 124.499 59.5931C125.628 59.5931 126.321 58.9431 126.321 57.8054C126.321 57.0042 125.9 56.6425 125.393 56.3925C124.455 55.9266 123.116 55.9266 123.116 54.646C123.116 53.8669 123.534 53.1743 124.451 53.1743C125 53.1743 125.458 53.4154 125.801 53.8316L125.995 53.6905C125.632 53.1964 125.06 52.9127 124.447 52.9127C123.403 52.9127 122.808 53.6302 122.808 54.6388C122.808 56.8836 126.013 55.8237 126.013 57.8319C126.013 58.7228 125.411 59.3181 124.499 59.3181C123.845 59.3181 123.278 59.0769 122.864 58.564L122.639 58.7228ZM135.381 57.3571H132.566L133.954 53.2568H133.975L135.381 57.3571ZM136.43 59.4711L134.193 52.9936H133.745L131.516 59.4711H131.847L132.475 57.6275H135.476L136.11 59.4711H136.43ZM139.42 58.7228C139.855 59.296 140.57 59.5931 141.28 59.5931C142.409 59.5931 143.103 58.9431 143.103 57.8054C143.103 57.0042 142.682 56.6425 142.175 56.3925C141.237 55.9266 139.898 55.9266 139.898 54.646C139.898 53.8669 140.315 53.1743 141.233 53.1743C141.781 53.1743 142.24 53.4154 142.583 53.8316L142.776 53.6905C142.413 53.1964 141.842 52.9127 141.228 52.9127C140.185 52.9127 139.59 53.6302 139.59 54.6388C139.59 56.8836 142.794 55.8237 142.794 57.8319C142.794 58.7228 142.192 59.3181 141.28 59.3181C140.626 59.3181 140.06 59.0769 139.646 58.564L139.42 58.7228ZM146.364 58.7228C146.798 59.296 147.514 59.5931 148.223 59.5931C149.352 59.5931 150.046 58.9431 150.046 57.8054C150.046 57.0042 149.625 56.6425 149.118 56.3925C148.18 55.9266 146.841 55.9266 146.841 54.646C146.841 53.8669 147.259 53.1743 148.176 53.1743C148.724 53.1743 149.184 53.4154 149.526 53.8316L149.719 53.6905C149.357 53.1964 148.785 52.9127 148.172 52.9127C147.129 52.9127 146.533 53.6302 146.533 54.6388C146.533 56.8836 149.738 55.8237 149.738 57.8319C149.738 58.7228 149.136 59.3181 148.223 59.3181C147.57 59.3181 147.003 59.0769 146.589 58.564L146.364 58.7228ZM155.844 53.192C157.45 53.192 157.855 55.1739 157.855 56.2087C157.855 57.0879 157.633 59.3196 155.849 59.3196C154.182 59.3196 153.829 57.3114 153.829 56.2087C153.829 55.2429 154.213 53.192 155.844 53.192ZM155.848 59.5989C157.623 59.5989 158.158 57.7216 158.158 56.222C158.158 54.4065 157.329 52.9215 155.844 52.9215C154.325 52.9215 153.53 54.5019 153.53 56.222C153.53 57.8686 154.134 59.5989 155.848 59.5989ZM164.178 59.5976C164.835 59.5976 165.564 59.33 166.018 58.6359L165.802 58.4728C165.276 59.1402 164.748 59.3211 164.191 59.3211C162.864 59.3211 162.109 57.8848 162.109 56.3057C162.109 54.702 162.738 53.1935 164.201 53.1935C164.653 53.1935 165.208 53.3817 165.676 53.9802L165.885 53.8199C165.407 53.1538 164.713 52.9304 164.196 52.9304C162.581 52.9304 161.796 54.4225 161.796 56.2882C161.796 58.0523 162.586 59.5976 164.178 59.5976ZM170.088 59.4711V52.9951H169.793V59.4711H170.088ZM177.438 57.3571H174.623L176.011 53.2568H176.032L177.438 57.3571ZM178.487 59.4711L176.25 52.9936H175.802L173.573 59.4711H173.904L174.532 57.6275H177.533L178.167 59.4711H178.487ZM183.149 53.2744C185.222 53.2744 186.072 54.3535 186.072 56.3412C186.072 58.242 184.934 59.205 183.619 59.205H182.222V53.2744H183.149ZM183.704 59.4754C185.312 59.4754 186.367 58.1523 186.367 56.3412C186.367 53.8551 185.087 53.0068 183.113 53.0068H181.927V59.4754H183.704ZM192.213 53.192C193.818 53.192 194.223 55.1739 194.223 56.2087C194.223 57.0879 194.001 59.3196 192.217 59.3196C190.551 59.3196 190.197 57.3114 190.197 56.2087C190.197 55.2429 190.582 53.192 192.213 53.192ZM192.217 59.5989C193.992 59.5989 194.527 57.7216 194.527 56.222C194.527 54.4065 193.697 52.9215 192.213 52.9215C190.694 52.9215 189.898 54.5019 189.898 56.222C189.898 57.8686 190.503 59.5989 192.217 59.5989ZM197.938 58.7228C198.372 59.296 199.087 59.5931 199.798 59.5931C200.926 59.5931 201.619 58.9431 201.619 57.8054C201.619 57.0042 201.199 56.6425 200.692 56.3925C199.754 55.9266 198.415 55.9266 198.415 54.646C198.415 53.8669 198.833 53.1743 199.75 53.1743C200.298 53.1743 200.757 53.4154 201.099 53.8316L201.294 53.6905C200.931 53.1964 200.359 52.9127 199.746 52.9127C198.702 52.9127 198.107 53.6302 198.107 54.6388C198.107 56.8836 201.311 55.8237 201.311 57.8319C201.311 58.7228 200.71 59.3181 199.798 59.3181C199.144 59.3181 198.576 59.0769 198.163 58.564L197.938 58.7228Z"/>
</mask>
<path d="M62.5588 57.3571H59.7439L61.1321 53.2568H61.1528L62.5588 57.3571ZM63.6077 59.4711L61.3707 52.9936H60.9232L58.6935 59.4711H59.024L59.6522 57.6275H62.6537L63.2878 59.4711H63.6077ZM68.2697 53.2744C70.3423 53.2744 71.1927 54.3535 71.1927 56.3412C71.1927 58.242 70.0549 59.205 68.7392 59.205H67.3423V53.2744H68.2697ZM68.8252 59.4754C70.4327 59.4754 71.4876 58.1523 71.4876 56.3412C71.4876 53.8551 70.2075 53.0068 68.2341 53.0068H67.0473V59.4754H68.8252ZM79.1243 52.9965H78.8029L76.868 59.1433H76.8456L74.899 52.9965H74.5954L76.6384 59.4754H77.0813L79.1243 52.9965ZM84.5018 53.192C86.1078 53.192 86.5118 55.1739 86.5118 56.2087C86.5118 57.0879 86.29 59.3196 84.5062 59.3196C82.8395 59.3196 82.4869 57.3114 82.4869 56.2087C82.4869 55.2429 82.8706 53.192 84.5018 53.192ZM84.506 59.5989C86.281 59.5989 86.8158 57.7216 86.8158 56.222C86.8158 54.4065 85.9861 52.9215 84.5016 52.9215C82.983 52.9215 82.1874 54.5019 82.1874 56.222C82.1874 57.8686 82.7919 59.5989 84.506 59.5989ZM94.9795 59.4726L94.976 56.5087H93.3296V56.7763H94.672L94.6633 57.9817C94.247 58.7095 93.8039 59.3168 92.8796 59.3168C91.3507 59.3168 90.7607 57.8656 90.7607 56.2339C90.7607 54.8827 91.2937 53.1847 92.9271 53.1847C93.5205 53.1847 94.069 53.4287 94.5243 54.0447L94.7324 53.8801C94.2763 53.192 93.5654 52.9215 92.9271 52.9215C91.1209 52.9215 90.4627 54.5783 90.4627 56.2339C90.4627 58.1539 91.1417 59.5976 92.8744 59.5976C93.5076 59.5976 94.1641 59.4033 94.6763 58.442L94.672 59.4726H94.9803H94.9795ZM102.139 57.3571H99.3243L100.713 53.2568H100.733L102.139 57.3571ZM103.188 59.4711L100.952 52.9936H100.504L98.274 59.4711H98.6048L99.2328 57.6275H102.234L102.868 59.4711H103.188ZM107.851 53.2744C109.923 53.2744 110.774 54.3535 110.774 56.3412C110.774 58.242 109.635 59.205 108.32 59.205H106.923V53.2744H107.851ZM108.406 59.4754C110.014 59.4754 111.068 58.1523 111.068 56.3412C111.068 53.8551 109.788 53.0068 107.814 53.0068H106.629V59.4754H108.406ZM116.914 53.192C118.519 53.192 118.925 55.1739 118.925 56.2087C118.925 57.0879 118.703 59.3196 116.918 59.3196C115.252 59.3196 114.899 57.3114 114.899 56.2087C114.899 55.2429 115.283 53.192 116.914 53.192ZM116.918 59.5989C118.693 59.5989 119.228 57.7216 119.228 56.222C119.228 54.4065 118.398 52.9215 116.914 52.9215C115.395 52.9215 114.6 54.5019 114.6 56.222C114.6 57.8686 115.204 59.5989 116.918 59.5989ZM122.639 58.7228C123.073 59.296 123.789 59.5931 124.499 59.5931C125.628 59.5931 126.321 58.9431 126.321 57.8054C126.321 57.0042 125.9 56.6425 125.393 56.3925C124.455 55.9266 123.116 55.9266 123.116 54.646C123.116 53.8669 123.534 53.1743 124.451 53.1743C125 53.1743 125.458 53.4154 125.801 53.8316L125.995 53.6905C125.632 53.1964 125.06 52.9127 124.447 52.9127C123.403 52.9127 122.808 53.6302 122.808 54.6388C122.808 56.8836 126.013 55.8237 126.013 57.8319C126.013 58.7228 125.411 59.3181 124.499 59.3181C123.845 59.3181 123.278 59.0769 122.864 58.564L122.639 58.7228ZM135.381 57.3571H132.566L133.954 53.2568H133.975L135.381 57.3571ZM136.43 59.4711L134.193 52.9936H133.745L131.516 59.4711H131.847L132.475 57.6275H135.476L136.11 59.4711H136.43ZM139.42 58.7228C139.855 59.296 140.57 59.5931 141.28 59.5931C142.409 59.5931 143.103 58.9431 143.103 57.8054C143.103 57.0042 142.682 56.6425 142.175 56.3925C141.237 55.9266 139.898 55.9266 139.898 54.646C139.898 53.8669 140.315 53.1743 141.233 53.1743C141.781 53.1743 142.24 53.4154 142.583 53.8316L142.776 53.6905C142.413 53.1964 141.842 52.9127 141.228 52.9127C140.185 52.9127 139.59 53.6302 139.59 54.6388C139.59 56.8836 142.794 55.8237 142.794 57.8319C142.794 58.7228 142.192 59.3181 141.28 59.3181C140.626 59.3181 140.06 59.0769 139.646 58.564L139.42 58.7228ZM146.364 58.7228C146.798 59.296 147.514 59.5931 148.223 59.5931C149.352 59.5931 150.046 58.9431 150.046 57.8054C150.046 57.0042 149.625 56.6425 149.118 56.3925C148.18 55.9266 146.841 55.9266 146.841 54.646C146.841 53.8669 147.259 53.1743 148.176 53.1743C148.724 53.1743 149.184 53.4154 149.526 53.8316L149.719 53.6905C149.357 53.1964 148.785 52.9127 148.172 52.9127C147.129 52.9127 146.533 53.6302 146.533 54.6388C146.533 56.8836 149.738 55.8237 149.738 57.8319C149.738 58.7228 149.136 59.3181 148.223 59.3181C147.57 59.3181 147.003 59.0769 146.589 58.564L146.364 58.7228ZM155.844 53.192C157.45 53.192 157.855 55.1739 157.855 56.2087C157.855 57.0879 157.633 59.3196 155.849 59.3196C154.182 59.3196 153.829 57.3114 153.829 56.2087C153.829 55.2429 154.213 53.192 155.844 53.192ZM155.848 59.5989C157.623 59.5989 158.158 57.7216 158.158 56.222C158.158 54.4065 157.329 52.9215 155.844 52.9215C154.325 52.9215 153.53 54.5019 153.53 56.222C153.53 57.8686 154.134 59.5989 155.848 59.5989ZM164.178 59.5976C164.835 59.5976 165.564 59.33 166.018 58.6359L165.802 58.4728C165.276 59.1402 164.748 59.3211 164.191 59.3211C162.864 59.3211 162.109 57.8848 162.109 56.3057C162.109 54.702 162.738 53.1935 164.201 53.1935C164.653 53.1935 165.208 53.3817 165.676 53.9802L165.885 53.8199C165.407 53.1538 164.713 52.9304 164.196 52.9304C162.581 52.9304 161.796 54.4225 161.796 56.2882C161.796 58.0523 162.586 59.5976 164.178 59.5976ZM170.088 59.4711V52.9951H169.793V59.4711H170.088ZM177.438 57.3571H174.623L176.011 53.2568H176.032L177.438 57.3571ZM178.487 59.4711L176.25 52.9936H175.802L173.573 59.4711H173.904L174.532 57.6275H177.533L178.167 59.4711H178.487ZM183.149 53.2744C185.222 53.2744 186.072 54.3535 186.072 56.3412C186.072 58.242 184.934 59.205 183.619 59.205H182.222V53.2744H183.149ZM183.704 59.4754C185.312 59.4754 186.367 58.1523 186.367 56.3412C186.367 53.8551 185.087 53.0068 183.113 53.0068H181.927V59.4754H183.704ZM192.213 53.192C193.818 53.192 194.223 55.1739 194.223 56.2087C194.223 57.0879 194.001 59.3196 192.217 59.3196C190.551 59.3196 190.197 57.3114 190.197 56.2087C190.197 55.2429 190.582 53.192 192.213 53.192ZM192.217 59.5989C193.992 59.5989 194.527 57.7216 194.527 56.222C194.527 54.4065 193.697 52.9215 192.213 52.9215C190.694 52.9215 189.898 54.5019 189.898 56.222C189.898 57.8686 190.503 59.5989 192.217 59.5989ZM197.938 58.7228C198.372 59.296 199.087 59.5931 199.798 59.5931C200.926 59.5931 201.619 58.9431 201.619 57.8054C201.619 57.0042 201.199 56.6425 200.692 56.3925C199.754 55.9266 198.415 55.9266 198.415 54.646C198.415 53.8669 198.833 53.1743 199.75 53.1743C200.298 53.1743 200.757 53.4154 201.099 53.8316L201.294 53.6905C200.931 53.1964 200.359 52.9127 199.746 52.9127C198.702 52.9127 198.107 53.6302 198.107 54.6388C198.107 56.8836 201.311 55.8237 201.311 57.8319C201.311 58.7228 200.71 59.3181 199.798 59.3181C199.144 59.3181 198.576 59.0769 198.163 58.564L197.938 58.7228Z" fill="white"/>
<path d="M62.5588 57.3571H59.7439L61.1321 53.2568H61.1528L62.5588 57.3571ZM63.6077 59.4711L61.3707 52.9936H60.9232L58.6935 59.4711H59.024L59.6522 57.6275H62.6537L63.2878 59.4711H63.6077ZM68.2697 53.2744C70.3423 53.2744 71.1927 54.3535 71.1927 56.3412C71.1927 58.242 70.0549 59.205 68.7392 59.205H67.3423V53.2744H68.2697ZM68.8252 59.4754C70.4327 59.4754 71.4876 58.1523 71.4876 56.3412C71.4876 53.8551 70.2075 53.0068 68.2341 53.0068H67.0473V59.4754H68.8252ZM79.1243 52.9965H78.8029L76.868 59.1433H76.8456L74.899 52.9965H74.5954L76.6384 59.4754H77.0813L79.1243 52.9965ZM84.5018 53.192C86.1078 53.192 86.5118 55.1739 86.5118 56.2087C86.5118 57.0879 86.29 59.3196 84.5062 59.3196C82.8395 59.3196 82.4869 57.3114 82.4869 56.2087C82.4869 55.2429 82.8706 53.192 84.5018 53.192ZM84.506 59.5989C86.281 59.5989 86.8158 57.7216 86.8158 56.222C86.8158 54.4065 85.9861 52.9215 84.5016 52.9215C82.983 52.9215 82.1874 54.5019 82.1874 56.222C82.1874 57.8686 82.7919 59.5989 84.506 59.5989ZM94.9795 59.4726L94.976 56.5087H93.3296V56.7763H94.672L94.6633 57.9817C94.247 58.7095 93.8039 59.3168 92.8796 59.3168C91.3507 59.3168 90.7607 57.8656 90.7607 56.2339C90.7607 54.8827 91.2937 53.1847 92.9271 53.1847C93.5205 53.1847 94.069 53.4287 94.5243 54.0447L94.7324 53.8801C94.2763 53.192 93.5654 52.9215 92.9271 52.9215C91.1209 52.9215 90.4627 54.5783 90.4627 56.2339C90.4627 58.1539 91.1417 59.5976 92.8744 59.5976C93.5076 59.5976 94.1641 59.4033 94.6763 58.442L94.672 59.4726H94.9803H94.9795ZM102.139 57.3571H99.3243L100.713 53.2568H100.733L102.139 57.3571ZM103.188 59.4711L100.952 52.9936H100.504L98.274 59.4711H98.6048L99.2328 57.6275H102.234L102.868 59.4711H103.188ZM107.851 53.2744C109.923 53.2744 110.774 54.3535 110.774 56.3412C110.774 58.242 109.635 59.205 108.32 59.205H106.923V53.2744H107.851ZM108.406 59.4754C110.014 59.4754 111.068 58.1523 111.068 56.3412C111.068 53.8551 109.788 53.0068 107.814 53.0068H106.629V59.4754H108.406ZM116.914 53.192C118.519 53.192 118.925 55.1739 118.925 56.2087C118.925 57.0879 118.703 59.3196 116.918 59.3196C115.252 59.3196 114.899 57.3114 114.899 56.2087C114.899 55.2429 115.283 53.192 116.914 53.192ZM116.918 59.5989C118.693 59.5989 119.228 57.7216 119.228 56.222C119.228 54.4065 118.398 52.9215 116.914 52.9215C115.395 52.9215 114.6 54.5019 114.6 56.222C114.6 57.8686 115.204 59.5989 116.918 59.5989ZM122.639 58.7228C123.073 59.296 123.789 59.5931 124.499 59.5931C125.628 59.5931 126.321 58.9431 126.321 57.8054C126.321 57.0042 125.9 56.6425 125.393 56.3925C124.455 55.9266 123.116 55.9266 123.116 54.646C123.116 53.8669 123.534 53.1743 124.451 53.1743C125 53.1743 125.458 53.4154 125.801 53.8316L125.995 53.6905C125.632 53.1964 125.06 52.9127 124.447 52.9127C123.403 52.9127 122.808 53.6302 122.808 54.6388C122.808 56.8836 126.013 55.8237 126.013 57.8319C126.013 58.7228 125.411 59.3181 124.499 59.3181C123.845 59.3181 123.278 59.0769 122.864 58.564L122.639 58.7228ZM135.381 57.3571H132.566L133.954 53.2568H133.975L135.381 57.3571ZM136.43 59.4711L134.193 52.9936H133.745L131.516 59.4711H131.847L132.475 57.6275H135.476L136.11 59.4711H136.43ZM139.42 58.7228C139.855 59.296 140.57 59.5931 141.28 59.5931C142.409 59.5931 143.103 58.9431 143.103 57.8054C143.103 57.0042 142.682 56.6425 142.175 56.3925C141.237 55.9266 139.898 55.9266 139.898 54.646C139.898 53.8669 140.315 53.1743 141.233 53.1743C141.781 53.1743 142.24 53.4154 142.583 53.8316L142.776 53.6905C142.413 53.1964 141.842 52.9127 141.228 52.9127C140.185 52.9127 139.59 53.6302 139.59 54.6388C139.59 56.8836 142.794 55.8237 142.794 57.8319C142.794 58.7228 142.192 59.3181 141.28 59.3181C140.626 59.3181 140.06 59.0769 139.646 58.564L139.42 58.7228ZM146.364 58.7228C146.798 59.296 147.514 59.5931 148.223 59.5931C149.352 59.5931 150.046 58.9431 150.046 57.8054C150.046 57.0042 149.625 56.6425 149.118 56.3925C148.18 55.9266 146.841 55.9266 146.841 54.646C146.841 53.8669 147.259 53.1743 148.176 53.1743C148.724 53.1743 149.184 53.4154 149.526 53.8316L149.719 53.6905C149.357 53.1964 148.785 52.9127 148.172 52.9127C147.129 52.9127 146.533 53.6302 146.533 54.6388C146.533 56.8836 149.738 55.8237 149.738 57.8319C149.738 58.7228 149.136 59.3181 148.223 59.3181C147.57 59.3181 147.003 59.0769 146.589 58.564L146.364 58.7228ZM155.844 53.192C157.45 53.192 157.855 55.1739 157.855 56.2087C157.855 57.0879 157.633 59.3196 155.849 59.3196C154.182 59.3196 153.829 57.3114 153.829 56.2087C153.829 55.2429 154.213 53.192 155.844 53.192ZM155.848 59.5989C157.623 59.5989 158.158 57.7216 158.158 56.222C158.158 54.4065 157.329 52.9215 155.844 52.9215C154.325 52.9215 153.53 54.5019 153.53 56.222C153.53 57.8686 154.134 59.5989 155.848 59.5989ZM164.178 59.5976C164.835 59.5976 165.564 59.33 166.018 58.6359L165.802 58.4728C165.276 59.1402 164.748 59.3211 164.191 59.3211C162.864 59.3211 162.109 57.8848 162.109 56.3057C162.109 54.702 162.738 53.1935 164.201 53.1935C164.653 53.1935 165.208 53.3817 165.676 53.9802L165.885 53.8199C165.407 53.1538 164.713 52.9304 164.196 52.9304C162.581 52.9304 161.796 54.4225 161.796 56.2882C161.796 58.0523 162.586 59.5976 164.178 59.5976ZM170.088 59.4711V52.9951H169.793V59.4711H170.088ZM177.438 57.3571H174.623L176.011 53.2568H176.032L177.438 57.3571ZM178.487 59.4711L176.25 52.9936H175.802L173.573 59.4711H173.904L174.532 57.6275H177.533L178.167 59.4711H178.487ZM183.149 53.2744C185.222 53.2744 186.072 54.3535 186.072 56.3412C186.072 58.242 184.934 59.205 183.619 59.205H182.222V53.2744H183.149ZM183.704 59.4754C185.312 59.4754 186.367 58.1523 186.367 56.3412C186.367 53.8551 185.087 53.0068 183.113 53.0068H181.927V59.4754H183.704ZM192.213 53.192C193.818 53.192 194.223 55.1739 194.223 56.2087C194.223 57.0879 194.001 59.3196 192.217 59.3196C190.551 59.3196 190.197 57.3114 190.197 56.2087C190.197 55.2429 190.582 53.192 192.213 53.192ZM192.217 59.5989C193.992 59.5989 194.527 57.7216 194.527 56.222C194.527 54.4065 193.697 52.9215 192.213 52.9215C190.694 52.9215 189.898 54.5019 189.898 56.222C189.898 57.8686 190.503 59.5989 192.217 59.5989ZM197.938 58.7228C198.372 59.296 199.087 59.5931 199.798 59.5931C200.926 59.5931 201.619 58.9431 201.619 57.8054C201.619 57.0042 201.199 56.6425 200.692 56.3925C199.754 55.9266 198.415 55.9266 198.415 54.646C198.415 53.8669 198.833 53.1743 199.75 53.1743C200.298 53.1743 200.757 53.4154 201.099 53.8316L201.294 53.6905C200.931 53.1964 200.359 52.9127 199.746 52.9127C198.702 52.9127 198.107 53.6302 198.107 54.6388C198.107 56.8836 201.311 55.8237 201.311 57.8319C201.311 58.7228 200.71 59.3181 199.798 59.3181C199.144 59.3181 198.576 59.0769 198.163 58.564L197.938 58.7228Z" stroke="white" stroke-width="0.4" mask="url(#path-7-outside-2)"/>
</g>
<defs>
<filter id="filter0_d" x="-3.69547" y="14.3862" width="108.811" height="21.9909" filterUnits="userSpaceOnUse" color-interpolation-filters="sRGB">
<feFlood flood-opacity="0" result="BackgroundImageFix"/>
<feColorMatrix in="SourceAlpha" type="matrix" values="0 0 0 0 0 0 0 0 0 0 0 0 0 0 0 0 0 0 127 0"/>
<feOffset dy="4"/>
<feGaussianBlur stdDeviation="2"/>
<feColorMatrix type="matrix" values="0 0 0 0 0 0 0 0 0 0 0 0 0 0 0 0 0 0 0.25 0"/>
<feBlend mode="normal" in2="BackgroundImageFix" result="effect1_dropShadow"/>
<feBlend mode="normal" in="SourceGraphic" in2="effect1_dropShadow" result="shape"/>
</filter>
<filter id="filter1_d" x="131.58" y="14.3862" width="132.346" height="22.0029" filterUnits="userSpaceOnUse" color-interpolation-filters="sRGB">
<feFlood flood-opacity="0" result="BackgroundImageFix"/>
<feColorMatrix in="SourceAlpha" type="matrix" values="0 0 0 0 0 0 0 0 0 0 0 0 0 0 0 0 0 0 127 0"/>
<feOffset dy="4"/>
<feGaussianBlur stdDeviation="2"/>
<feColorMatrix type="matrix" values="0 0 0 0 0 0 0 0 0 0 0 0 0 0 0 0 0 0 0.25 0"/>
<feBlend mode="normal" in2="BackgroundImageFix" result="effect1_dropShadow"/>
<feBlend mode="normal" in="SourceGraphic" in2="effect1_dropShadow" result="shape"/>
</filter>
<clipPath id="clip0">
<rect width="260" height="60" fill="white"/>
</clipPath>
</defs>
</svg>
