<svg width="60" height="60" viewBox="0 0 60 60" fill="none" xmlns="http://www.w3.org/2000/svg">
<g clip-path="url(#clip0)">
<path d="M58.4256 46.2868L46.2814 38.188C44.7403 37.1685 42.6744 37.5039 41.5351 38.9588L37.9976 43.5071C37.543 44.1066 36.7166 44.2805 36.0589 43.9151L35.386 43.5442C33.1553 42.3283 30.3798 40.8146 24.7876 35.2204C19.1954 29.6262 17.6787 26.8486 16.4628 24.622L16.0938 23.9491C15.7234 23.2915 15.894 22.4616 16.4937 22.0034L21.039 18.467C22.4933 17.3275 22.8292 15.2622 21.8109 13.7206L13.7121 1.57641C12.6685 0.00656512 10.5746 -0.464693 8.95897 0.50653L3.8807 3.55705C2.28507 4.49512 1.11443 6.01435 0.614229 7.79639C-1.21444 14.4594 0.161249 25.9587 17.1008 42.9002C30.5758 56.3742 40.6073 59.9977 47.5023 59.9977C49.0891 60.0045 50.6698 59.798 52.2017 59.3838C53.984 58.8842 55.5035 57.7134 56.441 56.1173L59.4946 51.0421C60.4672 49.4261 59.9962 47.331 58.4256 46.2868ZM57.7717 50.0162L54.7251 55.0944C54.052 56.2465 52.9592 57.0935 51.6756 57.4581C45.5245 59.1469 34.7781 57.7481 18.5155 41.4855C2.25285 25.2229 0.854193 14.4774 2.54297 8.32541C2.90807 7.04029 3.75615 5.94604 4.90957 5.27184L9.98784 2.2253C10.6889 1.80349 11.5976 2.00795 12.0505 2.68917L16.4499 9.29417L20.1424 14.8323C20.5846 15.501 20.4393 16.3973 19.8085 16.8921L15.2621 20.4285C13.8786 21.4864 13.4835 23.4006 14.3353 24.9199L14.6963 25.5758C15.9742 27.9194 17.5629 30.835 23.363 36.6342C29.1632 42.4333 32.0778 44.0221 34.4204 45.2998L35.0772 45.6618C36.5964 46.5135 38.5107 46.1185 39.5686 44.735L43.105 40.1886C43.6 39.5582 44.4958 39.413 45.1648 39.8547L57.3079 47.9535C57.9896 48.406 58.1941 49.3153 57.7717 50.0162Z" fill="#0A3850"/>
<path d="M33.9982 10.0051C43.3813 10.0156 50.9852 17.6196 50.9957 27.0027C50.9957 27.5549 51.4433 28.0025 51.9956 28.0025C52.5478 28.0025 52.9954 27.5549 52.9954 27.0027C52.9838 16.5156 44.4853 8.01701 33.9982 8.00552C33.446 8.00552 32.9984 8.45311 32.9984 9.00534C32.9984 9.55756 33.446 10.0051 33.9982 10.0051Z" fill="#0A3850"/>
<path d="M33.9982 16.0043C40.0695 16.0114 44.9895 20.9314 44.9966 27.0027C44.9966 27.5549 45.4443 28.0025 45.9964 28.0025C46.5487 28.0025 46.9963 27.5549 46.9963 27.0027C46.9879 19.8274 41.1734 14.0129 33.9982 14.0047C33.446 14.0047 32.9984 14.4523 32.9984 15.0045C32.9984 15.5567 33.446 16.0043 33.9982 16.0043Z" fill="#0A3850"/>
<path d="M33.9982 22.0034C36.7578 22.0067 38.9941 24.243 38.9975 27.0027C38.9975 27.5549 39.4452 28.0025 39.9973 28.0025C40.5494 28.0025 40.9972 27.5549 40.9972 27.0027C40.9927 23.1391 37.8618 20.0081 33.9982 20.0038C33.446 20.0038 32.9984 20.4513 32.9984 21.0036C32.9984 21.5558 33.446 22.0034 33.9982 22.0034Z" fill="#0A3850"/>
</g>
<defs>
<clipPath id="clip0">
<rect width="60" height="60" fill="white"/>
</clipPath>
</defs>
</svg>
