<svg width="60" height="60" viewBox="0 0 60 60" fill="none" xmlns="http://www.w3.org/2000/svg">
<path d="M42 10H8C3.58172 10 0 13.5817 0 18V52C0 56.4183 3.58172 60 8 60H42C46.4183 60 50 56.4183 50 52V18C50 13.5817 46.4183 10 42 10Z" fill="url(#paint0_linear)"/>
<path d="M11.0001 49.0675L12.978 41.8428C11.7576 39.7287 11.116 37.3304 11.1168 34.8734C11.1198 27.1864 17.374 20.9325 25.0583 20.9325C28.788 20.9341 32.2883 22.3859 34.9205 25.0215C37.5526 27.6563 39.0015 31.159 38.9999 34.8844C38.9969 42.571 32.7423 48.8256 25.0587 48.8256C25.0583 48.8256 25.0591 48.8256 25.0587 48.8256H25.0526C22.7196 48.8248 20.4269 48.2393 18.3906 47.1284L11.0001 49.0675ZM18.7328 44.6047L19.1562 44.8557C20.9351 45.9116 22.9747 46.47 25.0538 46.4712H25.0587C31.4453 46.4712 36.6436 41.2729 36.6463 34.8833C36.6474 31.7873 35.4431 28.8759 33.2554 26.6855C31.0676 24.4955 28.1582 23.2885 25.0633 23.2873C18.6714 23.2873 13.4731 28.4853 13.4708 34.8741C13.4697 37.0634 14.0823 39.1958 15.2424 41.0406L15.5178 41.4793L14.3474 45.7552L18.7328 44.6047Z" fill="white"/>
<path fill-rule="evenodd" clip-rule="evenodd" d="M32.0824 38.1994C31.995 38.0541 31.7631 37.9671 31.4148 37.7923C31.0661 37.618 29.3537 36.7754 29.0344 36.659C28.7151 36.543 28.4828 36.4847 28.2505 36.8334C28.0182 37.1824 27.3506 37.9671 27.1476 38.1994C26.9443 38.4317 26.741 38.4611 26.3927 38.2868C26.0444 38.1124 24.9222 37.7443 23.5916 36.5575C22.5559 35.634 21.8567 34.493 21.6537 34.1444C21.4504 33.7957 21.632 33.6073 21.8063 33.4337C21.9631 33.2773 22.1546 33.0266 22.3289 32.8233C22.5029 32.62 22.5609 32.4743 22.6772 32.242C22.7932 32.0096 22.7352 31.8059 22.6482 31.6316C22.5609 31.4573 21.8643 29.7426 21.574 29.0453C21.2913 28.3662 21.0041 28.4582 20.7904 28.4471C20.5875 28.4372 20.3548 28.4349 20.1225 28.4349C19.8906 28.4349 19.5129 28.5223 19.1936 28.8709C18.8743 29.2196 17.9744 30.0623 17.9744 31.777C17.9744 33.4917 19.2226 35.148 19.397 35.3803C19.5709 35.613 21.8532 39.1317 25.3479 40.6404C26.1787 40.9994 26.8276 41.2137 27.3338 41.3744C28.1681 41.6395 28.9276 41.6021 29.5276 41.5125C30.1971 41.4121 31.5887 40.6698 31.879 39.8561C32.1693 39.0421 32.1693 38.3447 32.0824 38.1994Z" fill="white"/>
<path d="M60 9.99999C60 15.5228 55.5228 20 50 20C44.4772 20 40 15.5228 40 9.99999C40 4.47715 44.4772 0 50 0C55.5228 0 60 4.47715 60 9.99999Z" fill="#FF0000"/>
<path d="M51 13.8515H50.0018V7.23435L48 7.96959V7.06798L50.8444 6H51V13.8515Z" fill="white"/>
<defs>
<linearGradient id="paint0_linear" x1="25" y1="10" x2="25" y2="60" gradientUnits="userSpaceOnUse">
<stop stop-color="#00FF83"/>
<stop offset="1" stop-color="#1ECA5E"/>
</linearGradient>
</defs>
</svg>
