<svg width="65" height="65" viewBox="0 0 65 65" fill="none" xmlns="http://www.w3.org/2000/svg">
<path d="M19.8814 53.1L20.7214 53.52C24.2214 55.62 28.1414 56.6 32.0614 56.6C44.3814 56.6 54.4614 46.52 54.4614 34.2C54.4614 28.32 52.0814 22.58 47.8814 18.38C43.6814 14.18 38.0814 11.8 32.0614 11.8C19.7414 11.8 9.66143 21.88 9.80143 34.34C9.80143 38.54 11.0614 42.6 13.1614 46.1L13.7214 46.94L11.4814 55.2L19.8814 53.1Z" fill="#00E676"/>
<path d="M45.22 39.1L43.68 38.4C43.68 38.4 41.44 37.42 40.04 36.72C39.9 36.72 39.76 36.58 39.62 36.58C39.2 36.58 38.92 36.72 38.64 36.86C38.64 36.86 38.5 37 36.54 39.24C36.4 39.52 36.12 39.66 35.84 39.66H35.7C35.56 39.66 35.28 39.52 35.14 39.38L34.44 39.1C32.9 38.4 31.5 37.56 30.38 36.44C30.1 36.16 29.68 35.88 29.4 35.6C28.42 34.62 27.44 33.5 26.74 32.24L26.6 31.96C26.46 31.82 26.46 31.68 26.32 31.4C26.32 31.12 26.32 30.84 26.46 30.7C26.46 30.7 27.02 30 27.44 29.58C27.72 29.3 27.86 28.88 28.14 28.6C28.42 28.18 28.56 27.62 28.42 27.2C28.28 26.5 26.6 22.72 26.18 21.88C25.9 21.46 25.62 21.32 25.2 21.18H24.78C24.5 21.18 24.08 21.18 23.66 21.18C23.38 21.18 23.1 21.32 22.82 21.32L22.68 21.46C22.4 21.6 22.12 21.88 21.84 22.02C21.56 22.3 21.42 22.58 21.14 22.86C20.16 24.12 19.6 25.66 19.6 27.2C19.6 28.32 19.88 29.44 20.3 30.42L20.44 30.84C21.7 33.5 23.38 35.88 25.62 37.98L26.18 38.54C26.6 38.96 27.02 39.24 27.3 39.66C30.24 42.18 33.6 44 37.38 44.98C37.8 45.12 38.36 45.12 38.78 45.26C39.2 45.26 39.76 45.26 40.18 45.26C40.88 45.26 41.72 44.98 42.28 44.7C42.7 44.42 42.98 44.42 43.26 44.14L43.54 43.86C43.82 43.58 44.1 43.44 44.38 43.16C44.66 42.88 44.94 42.6 45.08 42.32C45.36 41.76 45.5 41.06 45.64 40.36C45.64 40.08 45.64 39.66 45.64 39.38C45.64 39.38 45.5 39.24 45.22 39.1Z" fill="white"/>
<path d="M50.96 15.16C46.2 10.26 39.62 7.6 32.9 7.6C18.62 7.6 7.14 19.22 7.28 33.36C7.28 37.84 8.54 42.18 10.64 46.1L7 59.4L20.58 55.9C24.36 58 28.56 58.98 32.76 58.98C46.9 58.98 58.38 47.36 58.38 33.22C58.38 26.36 55.72 19.92 50.96 15.16ZM32.9 54.64C29.12 54.64 25.34 53.66 22.12 51.7L21.28 51.28L13.16 53.38L15.26 45.4L14.7 44.56C8.54 34.62 11.48 21.46 21.56 15.3C31.64 9.14 44.66 12.08 50.82 22.16C56.98 32.24 54.04 45.26 43.96 51.42C40.74 53.52 36.82 54.64 32.9 54.64Z" fill="white"/>
<path d="M63 13.9C63 19.699 58.299 24.4 52.5 24.4C46.701 24.4 42 19.699 42 13.9C42 8.10101 46.701 3.4 52.5 3.4C58.299 3.4 63 8.10101 63 13.9Z" fill="#FF0000"/>
<path d="M53.9834 18.8H52.7119V10.3713L50.1621 11.3078V10.1594L53.7852 8.79903H53.9834V18.8Z" fill="white"/>
</svg>
